<?xml version="1.0" encoding="UTF-8"?>
<svg version="1.1" xmlns="http://www.w3.org/2000/svg" width="150" height="80">
<path d="M0 0 C11.82658888 -0.68892751 11.82658888 -0.68892751 15.625 1.875 C18.71586579 4.6405115 20.17004302 5.96878038 21 10 C21.2165625 10.60972656 21.433125 11.21945313 21.65625 11.84765625 C22.23966824 15.50064998 20.34848099 17.87413515 18.51953125 20.9375 C16.35814224 23.87121053 14.47641383 24.95707585 11 26 C6.88408463 26.51448942 4.59934141 26.27029122 0.8125 24.5625 C-2.90925861 21.17156438 -4.8804126 17.92461869 -6 13 C-5.87718421 9.79205149 -5.43824933 6.88939776 -4 4 C-3.01 3.67 -2.02 3.34 -1 3 C-0.67 2.01 -0.34 1.02 0 0 Z M2 7.25 C0.66924071 9.24290136 0.66924071 9.24290136 1 13 C-0.65 13 -2.3 13 -4 13 C-4 13.33 -4 13.66 -4 14 C-2.35 14 -0.7 14 1 14 C1.309375 14.804375 1.61875 15.60875 1.9375 16.4375 C2.76335345 18.89080405 2.76335345 18.89080405 4 20 C6.33297433 20.04092937 8.66705225 20.04241723 11 20 C11.33 19.01 11.66 18.02 12 17 C12.66 17.33 13.32 17.66 14 18 C14.33 16.68 14.66 15.36 15 14 C16.65 14 18.3 14 20 14 C20 13.67 20 13.34 20 13 C18.35 13 16.7 13 15 13 C14.67 12.01 14.34 11.02 14 10 C13.34870203 8.65909241 12.68486725 7.32407669 12 6 C6.73817054 5.52442254 6.73817054 5.52442254 2 7.25 Z " fill="#C0C0C0" transform="translate(56,26)"/>
<path d="M0 0 C0.99 0 1.98 0 3 0 C3.103125 0.845625 3.20625 1.69125 3.3125 2.5625 C4.0828854 6.41442701 5.36274514 9.44075031 7 13 C7.66 13 8.32 13 9 13 C11.41685712 17.22949995 12.34833144 20.12335991 12 25 C10.02 25 8.04 25 6 25 C5.67 23.68 5.34 22.36 5 21 C3.54054712 21.08708669 2.08234132 21.19526907 0.625 21.3125 C-0.18710938 21.37050781 -0.99921875 21.42851563 -1.8359375 21.48828125 C-4.37921338 21.82990528 -4.37921338 21.82990528 -6 25 C-9.625 25.6875 -9.625 25.6875 -13 26 C-12.72285156 25.46890625 -12.44570312 24.9378125 -12.16015625 24.390625 C-11.79792969 23.68421875 -11.43570313 22.9778125 -11.0625 22.25 C-10.70285156 21.55390625 -10.34320313 20.8578125 -9.97265625 20.140625 C-8.93155445 18.03907978 -8.93155445 18.03907978 -8.49609375 15.796875 C-8.25052734 14.90742187 -8.25052734 14.90742187 -8 14 C-7.34 13.67 -6.68 13.34 -6 13 C-6 12.01 -6 11.02 -6 10 C-4.49862773 6.37168368 -2.34991098 3.13321464 0 0 Z M0 11 C0 11.66 0 12.32 0 13 C-1.32 13.33 -2.64 13.66 -4 14 C-3.01 14 -2.02 14 -1 14 C-1 14.66 -1 15.32 -1 16 C-0.01 16 0.98 16 2 16 C1.67 14.35 1.34 12.7 1 11 C0.67 11 0.34 11 0 11 Z M-2 16 C-1 18 -1 18 -1 18 Z M-3 18 C-2 20 -2 20 -2 20 Z " fill="#D2D2D2" transform="translate(110,26)"/>
<path d="M0 0 C10.24714829 8.57414449 10.24714829 8.57414449 14 13 C14 13.66 14 14.32 14 15 C14.66 14.67 15.32 14.34 16 14 C16 10.04 16 6.08 16 2 C17.98 1.67 19.96 1.34 22 1 C22.84831606 9.82248707 23.04865737 18.19127807 22 27 C18.60140297 25.53033642 16.35036291 23.61962486 13.75 21 C13.04359375 20.29875 12.3371875 19.5975 11.609375 18.875 C10 17 10 17 10 15 C7.03 14.67 4.06 14.34 1 14 C0.67 9.38 0.34 4.76 0 0 Z " fill="#B7B7B7" transform="translate(25,25)"/>
<path d="M0 0 C-0.639375 1.03125 -1.27875 2.0625 -1.9375 3.125 C-3.81711371 6.38609658 -4.63126531 9.22046944 -5 13 C-5.99 13 -6.98 13 -8 13 C-8.103125 13.70125 -8.20625 14.4025 -8.3125 15.125 C-9.09359003 18.39137647 -10.42058743 21.0471852 -12 24 C-15 23 -15 23 -16.38671875 20.49609375 C-16.81597656 19.48675781 -17.24523437 18.47742188 -17.6875 17.4375 C-18.12449219 16.42558594 -18.56148438 15.41367187 -19.01171875 14.37109375 C-19.33785156 13.58863281 -19.66398437 12.80617188 -20 12 C-20.66 12 -21.32 12 -22 12 C-23.42500059 8.00999834 -24.40075776 4.19469571 -25 0 C-22.25 -0.3125 -22.25 -0.3125 -19 0 C-15.77198746 2.79179463 -14.78374391 5.19609146 -14.25 9.3125 C-14.12625 11.1378125 -14.12625 11.1378125 -14 13 C-12.0549 10.08235 -11.54723683 8.37462715 -11 5 C-10.34 5 -9.68 5 -9 5 C-8.773125 4.195625 -8.54625 3.39125 -8.3125 2.5625 C-7 0 -7 0 -4.5 -0.875 C-2 -1 -2 -1 0 0 Z " fill="#C0C0C0" transform="translate(103,27)"/>
<path d="M0 0 C2.31 0 4.62 0 7 0 C7.33 1.32 7.66 2.64 8 4 C10.87450983 4.25048636 10.87450983 4.25048636 14 4 C14.474375 3.525625 14.94875 3.05125 15.4375 2.5625 C17.88872483 0.11127517 20.66281585 0.31482869 24 0 C23.58565093 4.83407252 21.62206046 6.89537674 18 10 C14.38069302 11.20643566 11.80768995 11.32268559 8 11 C4.29609979 8.97333762 2.34636989 7.51955484 0 4 C0 2.68 0 1.36 0 0 Z " fill="#D7D7D7" transform="translate(52,41)"/>
<path d="M0 0 C2.31 0 4.62 0 7 0 C9.41685712 4.22949995 10.34833144 7.12335991 10 12 C8.02 12 6.04 12 4 12 C3.67 10.68 3.34 9.36 3 8 C0.36 8.33 -2.28 8.66 -5 9 C-4.34 7.02 -3.68 5.04 -3 3 C-2.01 3 -1.02 3 0 3 C0 2.01 0 1.02 0 0 Z " fill="#B8B7B7" transform="translate(112,39)"/>
<path d="M0 0 C2.75 -0.3125 2.75 -0.3125 6 0 C9.45910728 2.89817096 10.25135357 5.48178989 10.75 9.8125 C10.85011115 11.2072304 10.93912884 12.60300686 11 14 C9.35 14.33 7.7 14.66 6 15 C5.34 14.01 4.68 13.02 4 12 C3.484375 11.443125 2.96875 10.88625 2.4375 10.3125 C0.34372381 6.94425134 0.32791334 3.93496011 0 0 Z " fill="#B6B6B6" transform="translate(78,27)"/>
<path d="M0 0 C2.4375 0.75 2.4375 0.75 5 2 C6.10584181 4.51427715 6.09785758 5.69674343 5.25 8.32421875 C3.96823316 10.74755919 2.76091524 12.89372365 1 15 C-2.8125 16.0625 -2.8125 16.0625 -6 16 C-5.72285156 15.46890625 -5.44570312 14.9378125 -5.16015625 14.390625 C-4.79792969 13.68421875 -4.43570313 12.9778125 -4.0625 12.25 C-3.70285156 11.55390625 -3.34320313 10.8578125 -2.97265625 10.140625 C-1.93155445 8.03907978 -1.93155445 8.03907978 -1.49609375 5.796875 C-1.25052734 4.90742187 -1.25052734 4.90742187 -1 4 C-0.34 3.67 0.32 3.34 1 3 C0.67 2.01 0.34 1.02 0 0 Z " fill="#B6B6B6" transform="translate(103,36)"/>
<path d="M0 0 C3.3 0 6.6 0 10 0 C8.8905928 3.48670834 7.73662334 6.77484237 6 10 C3 9 3 9 1.3125 6.125 C0 3 0 3 0 0 Z " fill="#E1E1E1" transform="translate(85,41)"/>
<path d="M0 0 C3.3 0 6.6 0 10 0 C10 3.3 10 6.6 10 10 C6.76414639 8.38207319 5.16753932 7.44195891 2.75 5 C2.22921875 4.484375 1.7084375 3.96875 1.171875 3.4375 C0 2 0 2 0 0 Z " fill="#E6E5E6" transform="translate(36,41)"/>
<path d="M0 0 C1.65 0 3.3 0 5 0 C5 3.96 5 7.92 5 12 C3.35 12 1.7 12 0 12 C0 8.04 0 4.08 0 0 Z " fill="#E0E0E0" transform="translate(41,27)"/>
<path d="M0 0 C1.65 0 3.3 0 5 0 C5 3.63 5 7.26 5 11 C3.35 11 1.7 11 0 11 C0 7.37 0 3.74 0 0 Z " fill="#D0D0D0" transform="translate(26,40)"/>
<path d="M0 0 C-0.66 2.31 -1.32 4.62 -2 7 C-3.875 7.625 -3.875 7.625 -6 8 C-8 6 -8 6 -8.125 3.375 C-8.08375 2.59125 -8.0425 1.8075 -8 1 C-5.29120665 -0.35439668 -2.99066732 -0.06501451 0 0 Z M-5 1 C-4 4 -4 4 -4 4 Z " fill="#7A7A7A" transform="translate(87,55)"/>
<path d="M0 0 C2.97 0.495 2.97 0.495 6 1 C6.33 2.98 6.66 4.96 7 7 C5.35 7.33 3.7 7.66 2 8 C0.4375 5.6875 0.4375 5.6875 -1 3 C-0.67 2.01 -0.34 1.02 0 0 Z " fill="#909090" transform="translate(56,55)"/>
<path d="M0 0 C-0.75 2.9375 -0.75 2.9375 -2 6 C-4 6.9375 -4 6.9375 -6 7 C-6.66 6.67 -7.32 6.34 -8 6 C-8 4.35 -8 2.7 -8 1 C-3.375 -1.125 -3.375 -1.125 0 0 Z M-6 2 C-5.67 2.99 -5.34 3.98 -5 5 C-4.34 4.34 -3.68 3.68 -3 3 C-3.99 2.67 -4.98 2.34 -6 2 Z " fill="#8C8C8C" transform="translate(79,56)"/>
<path d="M0 0 C1.65 0 3.3 0 5 0 C6 4.75 6 4.75 6 7 C4.02 7 2.04 7 0 7 C0 4.69 0 2.38 0 0 Z " fill="#AEAEAE" transform="translate(64,56)"/>
<path d="M0 0 C1.65 0 3.3 0 5 0 C5.33 1.32 5.66 2.64 6 4 C4.68 4.33 3.36 4.66 2 5 C2 5.66 2 6.32 2 7 C1.34 7 0.68 7 0 7 C0 4.69 0 2.38 0 0 Z " fill="#B2B2B2" transform="translate(87,56)"/>
<path d="M0 0 C0.99 0.33 1.98 0.66 3 1 C3 1.66 3 2.32 3 3 C3.99 3.66 4.98 4.32 6 5 C2.25 6.125 2.25 6.125 0 5 C0 3.35 0 1.7 0 0 Z " fill="#BCBDBC" transform="translate(71,57)"/>
<path d="M0 0 C0.99 0.99 1.98 1.98 3 3 C2.01 2.67 1.02 2.34 0 2 C0 1.34 0 0.68 0 0 Z " fill="#000000" transform="translate(55,61)"/>
<path d="M0 0 C0 0.99 0 1.98 0 3 C-0.66 2.67 -1.32 2.34 -2 2 C-1.34 1.34 -0.68 0.68 0 0 Z " fill="#000000" transform="translate(78,61)"/>
<path d="M0 0 C0.99 0.33 1.98 0.66 3 1 C2.67 1.66 2.34 2.32 2 3 C1.34 2.01 0.68 1.02 0 0 Z " fill="#000000" transform="translate(37,35)"/>
<path d="M0 0 C0.66 0.66 1.32 1.32 2 2 C1.01 1.67 0.02 1.34 -1 1 C-0.67 0.67 -0.34 0.34 0 0 Z " fill="#000000" transform="translate(85,62)"/>
<path d="M0 0 C0.66 0.33 1.32 0.66 2 1 C1.01 1 0.02 1 -1 1 C-0.67 0.67 -0.34 0.34 0 0 Z " fill="#000000" transform="translate(71,50)"/>
<path d="M0 0 C0.99 0.33 1.98 0.66 3 1 C2.01 1 1.02 1 0 1 C0 0.67 0 0.34 0 0 Z " fill="#000000" transform="translate(55,50)"/>
<path d="M0 0 C0 3 0 3 0 3 Z " fill="#000000" transform="translate(90,35)"/>
<path d="M0 0 C3 1 3 1 3 1 Z " fill="#000000" transform="translate(70,63)"/>
<path d="M0 0 C0.33 0.66 0.66 1.32 1 2 C0.34 1.67 -0.32 1.34 -1 1 C-0.67 0.67 -0.34 0.34 0 0 Z " fill="#000000" transform="translate(93,60)"/>
<path d="M0 0 C0.33 0.66 0.66 1.32 1 2 C0.34 1.67 -0.32 1.34 -1 1 C-0.67 0.67 -0.34 0.34 0 0 Z " fill="#000000" transform="translate(105,50)"/>
<path d="M0 0 C0.99 0.495 0.99 0.495 2 1 C1.01 1.495 1.01 1.495 0 2 C0 1.34 0 0.68 0 0 Z " fill="#000000" transform="translate(94,26)"/>
<path d="M0 0 C2 1 2 1 2 1 Z " fill="#000000" transform="translate(79,63)"/>
<path d="M0 0 C2 1 2 1 2 1 Z " fill="#000000" transform="translate(62,63)"/>
<path d="M0 0 C2 1 2 1 2 1 Z " fill="#000000" transform="translate(62,55)"/>
<path d="" fill="#000000" transform="translate(0,0)"/>
<path d="M0 0 C2 1 2 1 2 1 Z " fill="#000000" transform="translate(31,51)"/>
<path d="" fill="#000000" transform="translate(0,0)"/>
<path d="" fill="#000000" transform="translate(0,0)"/>
<path d="" fill="#000000" transform="translate(0,0)"/>
<path d="" fill="#000000" transform="translate(0,0)"/>
<path d="" fill="#000000" transform="translate(0,0)"/>
<path d="" fill="#000000" transform="translate(0,0)"/>
<path d="" fill="#000000" transform="translate(0,0)"/>
<path d="" fill="#000000" transform="translate(0,0)"/>
<path d="" fill="#000000" transform="translate(0,0)"/>
<path d="" fill="#000000" transform="translate(0,0)"/>
<path d="" fill="#000000" transform="translate(0,0)"/>
<path d="" fill="#000000" transform="translate(0,0)"/>
<path d="" fill="#000000" transform="translate(0,0)"/>
<path d="M0 0 C2 1 2 1 2 1 Z " fill="#000000" transform="translate(60,44)"/>
<path d="" fill="#000000" transform="translate(0,0)"/>
<path d="" fill="#000000" transform="translate(0,0)"/>
<path d="" fill="#000000" transform="translate(0,0)"/>
<path d="" fill="#000000" transform="translate(0,0)"/>
<path d="" fill="#000000" transform="translate(0,0)"/>
<path d="" fill="#000000" transform="translate(0,0)"/>
<path d="" fill="#000000" transform="translate(0,0)"/>
<path d="" fill="#000000" transform="translate(0,0)"/>
<path d="" fill="#000000" transform="translate(0,0)"/>
<path d="M0 0 C2 1 2 1 2 1 Z " fill="#000000" transform="translate(66,33)"/>
<path d="M0 0 C2 1 2 1 2 1 Z " fill="#000000" transform="translate(60,33)"/>
<path d="" fill="#000000" transform="translate(0,0)"/>
<path d="" fill="#000000" transform="translate(0,0)"/>
<path d="" fill="#000000" transform="translate(0,0)"/>
<path d="" fill="#000000" transform="translate(0,0)"/>
<path d="" fill="#000000" transform="translate(0,0)"/>
<path d="" fill="#000000" transform="translate(0,0)"/>
<path d="M0 0 C2 1 2 1 2 1 Z " fill="#000000" transform="translate(71,27)"/>
<path d="" fill="#000000" transform="translate(0,0)"/>
<path d="" fill="#242424" transform="translate(0,0)"/>
<path d="" fill="#000000" transform="translate(0,0)"/>
<path d="" fill="#000000" transform="translate(0,0)"/>
<path d="" fill="#000000" transform="translate(0,0)"/>
<path d="" fill="#000000" transform="translate(0,0)"/>
<path d="" fill="#000000" transform="translate(0,0)"/>
<path d="" fill="#000000" transform="translate(0,0)"/>
<path d="" fill="#000000" transform="translate(0,0)"/>
<path d="" fill="#000000" transform="translate(0,0)"/>
<path d="" fill="#000000" transform="translate(0,0)"/>
<path d="" fill="#000000" transform="translate(0,0)"/>
<path d="" fill="#000000" transform="translate(0,0)"/>
<path d="" fill="#000000" transform="translate(0,0)"/>
<path d="" fill="#000000" transform="translate(0,0)"/>
<path d="" fill="#000000" transform="translate(0,0)"/>
<path d="" fill="#000000" transform="translate(0,0)"/>
<path d="" fill="#000000" transform="translate(0,0)"/>
<path d="" fill="#000000" transform="translate(0,0)"/>
<path d="" fill="#000000" transform="translate(0,0)"/>
<path d="" fill="#000000" transform="translate(0,0)"/>
<path d="" fill="#000000" transform="translate(0,0)"/>
<path d="" fill="#000000" transform="translate(0,0)"/>
<path d="" fill="#000000" transform="translate(0,0)"/>
<path d="" fill="#000000" transform="translate(0,0)"/>
<path d="" fill="#000000" transform="translate(0,0)"/>
<path d="" fill="#000000" transform="translate(0,0)"/>
<path d="" fill="#000000" transform="translate(0,0)"/>
<path d="" fill="#000000" transform="translate(0,0)"/>
<path d="" fill="#000000" transform="translate(0,0)"/>
<path d="" fill="#000000" transform="translate(0,0)"/>
<path d="" fill="#000000" transform="translate(0,0)"/>
<path d="" fill="#000000" transform="translate(0,0)"/>
<path d="" fill="#000000" transform="translate(0,0)"/>
<path d="" fill="#000000" transform="translate(0,0)"/>
<path d="" fill="#000000" transform="translate(0,0)"/>
<path d="" fill="#000000" transform="translate(0,0)"/>
<path d="" fill="#000000" transform="translate(0,0)"/>
<path d="" fill="#000000" transform="translate(0,0)"/>
<path d="" fill="#000000" transform="translate(0,0)"/>
<path d="" fill="#000000" transform="translate(0,0)"/>
<path d="" fill="#000000" transform="translate(0,0)"/>
<path d="" fill="#000000" transform="translate(0,0)"/>
<path d="" fill="#000000" transform="translate(0,0)"/>
<path d="" fill="#000000" transform="translate(0,0)"/>
<path d="" fill="#000000" transform="translate(0,0)"/>
<path d="" fill="#000000" transform="translate(0,0)"/>
<path d="" fill="#000000" transform="translate(0,0)"/>
<path d="" fill="#000000" transform="translate(0,0)"/>
<path d="" fill="#000000" transform="translate(0,0)"/>
<path d="" fill="#000000" transform="translate(0,0)"/>
<path d="" fill="#000000" transform="translate(0,0)"/>
<path d="" fill="#000000" transform="translate(0,0)"/>
<path d="" fill="#000000" transform="translate(0,0)"/>
<path d="" fill="#000000" transform="translate(0,0)"/>
<path d="" fill="#000000" transform="translate(0,0)"/>
<path d="" fill="#000000" transform="translate(0,0)"/>
<path d="" fill="#000000" transform="translate(0,0)"/>
<path d="" fill="#000000" transform="translate(0,0)"/>
<path d="" fill="#000000" transform="translate(0,0)"/>
<path d="" fill="#000000" transform="translate(0,0)"/>
<path d="" fill="#000000" transform="translate(0,0)"/>
<path d="" fill="#000000" transform="translate(0,0)"/>
<path d="" fill="#000000" transform="translate(0,0)"/>
<path d="" fill="#000000" transform="translate(0,0)"/>
<path d="" fill="#000000" transform="translate(0,0)"/>
<path d="" fill="#000000" transform="translate(0,0)"/>
<path d="" fill="#000000" transform="translate(0,0)"/>
<path d="" fill="#000000" transform="translate(0,0)"/>
<path d="" fill="#000000" transform="translate(0,0)"/>
<path d="" fill="#000000" transform="translate(0,0)"/>
<path d="" fill="#000000" transform="translate(0,0)"/>
<path d="" fill="#000000" transform="translate(0,0)"/>
<path d="" fill="#000000" transform="translate(0,0)"/>
<path d="" fill="#000000" transform="translate(0,0)"/>
<path d="" fill="#000000" transform="translate(0,0)"/>
</svg>
